<svg width="29" height="29" viewBox="0 0 29 29" fill="none" xmlns="http://www.w3.org/2000/svg">
<g id="circum:instagram">
<path id="Vector" d="M22.278 25.2989H6.72194C5.92077 25.2989 5.15241 24.9806 4.58589 24.4141C4.01938 23.8476 3.70111 23.0792 3.70111 22.278V6.72196C3.70111 5.92078 4.01938 5.15242 4.58589 4.58591C5.15241 4.01939 5.92077 3.70113 6.72194 3.70113H22.278C23.0792 3.70113 23.8476 4.01939 24.4141 4.58591C24.9806 5.15242 25.2989 5.92078 25.2989 6.72196V22.278C25.2989 23.0792 24.9806 23.8476 24.4141 24.4141C23.8476 24.9806 23.0792 25.2989 22.278 25.2989ZM6.72194 4.90946C6.24124 4.90946 5.78022 5.10042 5.44031 5.44033C5.1004 5.78024 4.90944 6.24125 4.90944 6.72196V22.278C4.90944 22.7587 5.1004 23.2198 5.44031 23.5597C5.78022 23.8996 6.24124 24.0905 6.72194 24.0905H22.278C22.7587 24.0905 23.2197 23.8996 23.5597 23.5597C23.8996 23.2198 24.0905 22.7587 24.0905 22.278V6.72196C24.0905 6.24125 23.8996 5.78024 23.5597 5.44033C23.2197 5.10042 22.7587 4.90946 22.278 4.90946H6.72194Z" fill="black"/>
<path id="Vector_2" d="M14.5 20.0511C13.4021 20.0499 12.3291 19.7232 11.4168 19.1123C10.5045 18.5015 9.79381 17.6338 9.37453 16.6191C8.95526 15.6044 8.84623 14.4881 9.06125 13.4115C9.27627 12.3348 9.80567 11.346 10.5825 10.5702C11.3594 9.79432 12.3488 9.26621 13.4258 9.0526C14.5027 8.83899 15.6189 8.94947 16.633 9.37007C17.6472 9.79067 18.5139 10.5025 19.1236 11.4156C19.7333 12.3287 20.0586 13.4021 20.0583 14.5C20.0564 15.9729 19.4699 17.3848 18.4278 18.4257C17.3856 19.4665 15.9729 20.0511 14.5 20.0511ZM14.5 10.15C13.6413 10.1512 12.8023 10.4068 12.0889 10.8846C11.3755 11.3624 10.8196 12.0409 10.4916 12.8344C10.1635 13.6279 10.078 14.5008 10.2458 15.3429C10.4136 16.185 10.8272 16.9584 11.4344 17.5656C12.0415 18.1727 12.815 18.5863 13.6571 18.7542C14.4992 18.922 15.3721 18.8364 16.1656 18.5084C16.9591 18.1804 17.6376 17.6245 18.1154 16.9111C18.5932 16.1977 18.8488 15.3586 18.85 14.5C18.85 13.3463 18.3917 12.2399 17.5759 11.4241C16.7601 10.6083 15.6537 10.15 14.5 10.15Z" fill="black"/>
<path id="Vector_3" d="M20.7833 9.55188C21.5007 9.55188 22.0823 8.97032 22.0823 8.25292C22.0823 7.53553 21.5007 6.95396 20.7833 6.95396C20.0659 6.95396 19.4844 7.53553 19.4844 8.25292C19.4844 8.97032 20.0659 9.55188 20.7833 9.55188Z" fill="black"/>
</g>
</svg>
